<?xml version="1.0" encoding="UTF-8" standalone="no"?>
<svg
   width="27"
   height="19.125093"
   viewBox="0 0 27.000001 19.125094"
   version="1.1"
   id="svg5"
   sodipodi:docname="23.svg"
   inkscape:version="1.3 (0e150ed, 2023-07-21)"
   xmlns:inkscape="http://www.inkscape.org/namespaces/inkscape"
   xmlns:sodipodi="http://sodipodi.sourceforge.net/DTD/sodipodi-0.dtd"
   xmlns="http://www.w3.org/2000/svg"
   xmlns:svg="http://www.w3.org/2000/svg">
  <defs
     id="defs5" />
  <sodipodi:namedview
     id="namedview5"
     pagecolor="#ffffff"
     bordercolor="#000000"
     borderopacity="0.25"
     inkscape:showpageshadow="2"
     inkscape:pageopacity="0.0"
     inkscape:pagecheckerboard="0"
     inkscape:deskcolor="#d1d1d1"
     inkscape:zoom="12.013889"
     inkscape:cx="35.958382"
     inkscape:cy="25.012717"
     inkscape:window-width="1392"
     inkscape:window-height="1212"
     inkscape:window-x="0"
     inkscape:window-y="25"
     inkscape:window-maximized="0"
     inkscape:current-layer="svg5" />
  <g
     id="money-stack-hand-drawn-outline"
     style="fill:#ffffff"
     transform="matrix(0.37500183,0,0,0.37500183,-1.4905056e-4,-7.4126873e-8)">
    <path
       d="M 69.3889,0.0830271 C 49.116,0.393793 22.5323,1.13012 2.26513,0.461485 1.43543,0.433638 0.959382,0.948815 0.819955,1.56368 0.802191,1.61597 0.778605,1.66529 0.768454,1.72054 0.636491,2.41184 0.583049,3.09766 0.583049,3.79873 0.0599738,11.1715 0.17253,25.4911 8.59147e-4,32.875 -0.00526131,33.145 0.0498228,33.3745 0.145212,33.5707 c 0.165253,0.6011 0.632646,1.1388 1.408148,1.2299 20.65534,2.4287 47.63474,0.6107 68.30864,-0.5775 0.3684,-0.0218 0.6678,-0.1452 0.9004,-0.3309 0.6876,-0.0865 1.288,-0.5716 1.2343,-1.466 -0.4876,-7.9952 -0.517,-22.93148 -0.5179,-30.93791 0,-1.227661 -1.1841,-1.694698 -2.0899,-1.4052629 z M 3.12438,31.8846 C 3.26575,24.8301 3.18797,10.8418 3.68791,3.79888 3.68791,3.72482 3.69104,3.65105 3.69164,3.57699 23.152,4.15616 48.9142,3.49241 68.3777,3.18135 68.3853,10.2149 68.4451,24.1776 68.8333,31.2024 49.022,32.3601 22.919,34.0089 3.12438,31.8846 Z"
       id="Shape"
       fill="#000000"
       stroke="none"
       style="fill:#ffffff" />
    <path
       d="M 14.3478,12.2757 C 12.8105,10.9965 10.9093,10.4294 8.96897,10.0157 8.90427,8.32433 8.83885,6.63251 8.76639,4.94099 9.6114,5.1346 10.421,5.41738 11.1085,5.74879 12.7905,6.55735 13.6974,3.71946 12.0377,2.92127 11.0527,2.44793 9.87327,2.07947 8.63714,1.8813 8.63202,1.76376 8.62646,1.64638 8.62265,1.52991 8.54346,-0.37487 5.67894,-0.575334 5.75886,1.34912 5.76398,1.48738 5.76998,1.62519 5.77554,1.76285 3.93812,1.91697 2.20257,2.55479 1.01519,3.91093 c -2.18755,2.4981 -0.566024,6.81177 2.26367,7.87887 0.93693,0.3534 1.92656,0.5659 2.92746,0.7498 0.07626,2.2836 0.12339,4.5684 0.15208,6.854 -1.31179,-0.6426 -2.50562,-1.5912 -3.24743,-2.4338 -1.2512,-1.4189 -3.400843,0.5586 -2.148033,1.981 1.255003,1.4244 3.269683,2.8448 5.417713,3.6097 -0.00146,0.3051 0.00659,0.6084 0.00527,0.9126 -0.0101,1.9191 2.8534,2.1102 2.86453,0.1805 7.3e-4,-0.1749 -0.00513,-0.3499 -0.00308,-0.5249 1.47383,0.0318 2.88103,-0.384 4.01823,-1.4784 2.4304,-2.3365 4.1616,-6.8011 1.0822,-9.3646 z M 4.8452,9.15713 C 3.0208,8.68135 2.01931,6.32503 4.05141,5.26189 4.61363,4.96767 5.24465,4.80639 5.90245,4.73398 5.96861,6.3046 6.03023,7.87447 6.09127,9.4451 5.66869,9.35759 5.25182,9.26369 4.8452,9.15713 Z M 11.1589,19.5507 C 10.5807,19.9588 9.91908,20.1299 9.22717,20.1369 9.20332,17.7889 9.15618,15.441 9.0808,13.0948 c 1.1989,0.2875 2.3562,0.6951 3.3923,1.432 1.7281,1.2281 -0.1151,4.1744 -1.3142,5.0239 z"
       transform="translate(28,6)"
       id="path1"
       fill="#000000"
       stroke="none"
       style="fill:#ffffff" />
    <path
       d="M 68.5232,0.00667135 C 46.2251,1.87727 23.814,2.84007 1.47755,1.01 c -1.978121,-0.161676 -1.961998,2.8496 0,3.01055 C 23.814,5.8499 46.2251,4.88695 68.5232,3.01723 c 1.9612,-0.16472 1.9769,-3.177297 0,-3.01055865 z"
       transform="translate(1,35)"
       id="Path"
       fill="#000000"
       stroke="none"
       style="fill:#ffffff" />
    <path
       d="M 68.5232,0.00667135 C 46.2251,1.87727 23.814,2.83992 1.47755,1.01 c -1.978121,-0.161676 -1.961998,2.8496 0,3.01055 C 23.814,5.8499 46.2251,4.88695 68.5232,3.01723 c 1.9612,-0.16472 1.9769,-3.177297 0,-3.01055865 z"
       transform="translate(1,41)"
       id="path2"
       fill="#000000"
       stroke="none"
       style="fill:#ffffff" />
    <path
       d="M 68.5232,0.00668245 C 46.2251,1.87729 23.814,2.83995 1.47755,1.01001 c -1.978121,-0.161671 -1.961998,2.84962 0,3.01043 22.33645,1.8295 44.74755,0.86655 67.04565,-1.00319 1.9612,-0.16471 1.9769,-3.177452 0,-3.01056755 z"
       transform="translate(1,45)"
       id="path3"
       fill="#000000"
       stroke="none"
       style="fill:#ffffff" />
    <path
       d="m 7.98021,3.43283 c 0,-0.02468 0.00631,-0.0475 0.00385,-0.07204 C 7.90389,2.39591 7.59459,1.44914 6.77087,0.802221 5.91176,0.126773 4.78336,-0.0736501 3.68328,0.0227814 3.59618,0.0300565 3.51062,0.0458907 3.42815,0.0658617 2.41593,0.16429 1.48911,0.515352 0.73479,1.18353 0.632306,1.27411 0.560598,1.37111 0.502739,1.46925 0.434725,1.56126 0.373019,1.65969 0.32624,1.76725 -0.00583273,2.52101 -0.0844652,3.32142 0.0906498,4.11356 0.0707993,4.3331 0.11804,4.55791 0.246992,4.75719 0.752486,5.54348 1.46633,6.13177 2.27789,6.63975 2.33452,6.67527 2.39623,6.70209 2.4587,6.72534 2.54903,6.77355 2.64813,6.81592 2.76508,6.84488 4.05013,7.16285 5.34641,6.98724 6.48958,6.36172 6.6193,6.29068 6.71855,6.20595 6.80257,6.11608 6.81319,6.1088 6.82335,6.10296 6.83304,6.0954 7.64183,5.44049 8.09147,4.44921 7.98437,3.45394 7.98344,3.44624 7.98098,3.44011 7.98021,3.43283 Z M 5.52352,4.09202 C 5.52199,4.05792 5.38365,4.30785 5.35703,4.34379 5.4492,4.21912 5.25223,4.41198 5.17068,4.4883 4.62918,4.75819 4.08336,4.84293 3.47939,4.70998 3.11608,4.48074 2.7383,4.1739 2.45732,3.81385 2.45178,3.78061 2.45024,3.74723 2.44055,3.71385 2.34252,3.35566 2.38315,3.04782 2.50148,2.7066 2.88633,2.39448 3.34505,2.25725 3.88409,2.24812 3.95134,2.24655 4.01073,2.23614 4.07213,2.22744 c 0.39609,-0.00685 0.75709,0.0398 1.03146,0.18473 0.13279,0.06961 0.20743,0.16376 0.29144,0.29044 0.1031,0.15677 0.16881,0.41183 0.18882,0.65818 7.6e-4,0.00571 0.0023,0.01113 0.00323,0.01627 0,0.0261 -0.00631,0.05035 -0.00323,0.07631 0.01523,0.13509 0.016,0.26704 0.00969,0.40199 -0.00908,-0.02111 -0.0474,0.1465 -0.07002,0.23666 z"
       transform="translate(5,6)"
       id="path4"
       fill="#000000"
       stroke="none"
       style="fill:#ffffff" />
    <path
       d="M 7.98053,3.43281 C 7.98053,3.40813 7.98669,3.3853 7.98438,3.36077 7.9039,2.39588 7.59445,1.4491 6.77088,0.802179 5.91207,0.126727 4.78367,-0.0735553 3.68358,0.0227341 3.59617,0.0300093 3.51092,0.0459863 3.42814,0.0658147 2.41622,0.164387 1.4894,0.515308 0.734613,1.18349 0.632282,1.27407 0.560266,1.37107 0.502407,1.46922 0.434546,1.56123 0.372686,1.6598 0.325907,1.76736 -0.00616726,2.52112 -0.0843385,3.32154 0.0907774,4.11354 0.0704652,4.33308 0.118168,4.5579 0.24712,4.75718 0.752617,5.54361 1.46616,6.13176 2.27788,6.63989 2.3342,6.67541 2.39606,6.70223 2.45853,6.72534 2.54917,6.77355 2.64827,6.81592 2.76476,6.84488 4.05027,7.16285 5.34641,6.98724 6.48974,6.36172 6.61946,6.29068 6.71856,6.20594 6.80227,6.11607 6.81304,6.1088 6.82335,6.10309 6.83258,6.09539 7.64138,5.44062 8.09148,4.4492 7.98438,3.45392 7.98376,3.44622 7.9813,3.44008 7.98053,3.43281 Z M 5.52383,4.092 C 5.52214,4.05805 5.38396,4.30797 5.35733,4.34378 5.44966,4.21924 5.25254,4.41196 5.17052,4.48828 4.62902,4.75818 4.08367,4.84291 3.47969,4.70996 3.11637,4.48072 2.73814,4.17388 2.45746,3.81383 2.45207,3.78045 2.45053,3.74721 2.44038,3.71383 2.34266,3.35563 2.38329,3.04779 2.50131,2.70657 2.88648,2.39445 3.34519,2.25708 3.88424,2.24809 3.95148,2.24666 4.01088,2.23611 4.07182,2.22741 4.46806,2.22056 4.82906,2.26721 5.10328,2.41214 5.23608,2.48161 5.31117,2.57576 5.39488,2.70258 5.49798,2.85949 5.56369,3.11441 5.584,3.36063 5.58477,3.36647 5.58646,3.3719 5.58723,3.37689 5.58723,3.40299 5.58092,3.42724 5.584,3.45335 5.59893,3.58844 5.5997,3.72039 5.59339,3.85534 5.58477,3.83408 5.54645,4.00184 5.52383,4.092 Z"
       transform="translate(59,5)"
       id="path5"
       fill="#000000"
       stroke="none"
       style="fill:#ffffff" />
  </g>
</svg>
