<?xml version="1.0" encoding="UTF-8" standalone="no"?>
<svg
   width="32"
   height="26"
   viewBox="0 0 32 26"
   fill="none"
   version="1.1"
   id="svg1"
   sodipodi:docname="95.svg"
   inkscape:version="1.3 (0e150ed, 2023-07-21)"
   xmlns:inkscape="http://www.inkscape.org/namespaces/inkscape"
   xmlns:sodipodi="http://sodipodi.sourceforge.net/DTD/sodipodi-0.dtd"
   xmlns="http://www.w3.org/2000/svg"
   xmlns:svg="http://www.w3.org/2000/svg">
  <defs
     id="defs1" />
  <sodipodi:namedview
     id="namedview1"
     pagecolor="#ffffff"
     bordercolor="#000000"
     borderopacity="0.25"
     inkscape:showpageshadow="2"
     inkscape:pageopacity="0.0"
     inkscape:pagecheckerboard="0"
     inkscape:deskcolor="#d1d1d1"
     inkscape:zoom="9.0769231"
     inkscape:cx="16.029661"
     inkscape:cy="13"
     inkscape:window-width="1312"
     inkscape:window-height="449"
     inkscape:window-x="0"
     inkscape:window-y="38"
     inkscape:window-maximized="0"
     inkscape:current-layer="svg1" />
  <path
     d="M29.1505 8.85344H27.6831V3.88149C27.6831 2.02765 26.1765 0.520996 24.3226 0.520996H3.36049C1.50665 0.520996 0 2.02765 0 3.88149V17.4545C0 19.3083 1.50665 20.815 3.36049 20.815H12.6624V23.1208H9.8129C9.16438 23.1208 8.63378 23.6514 8.63378 24.2999C8.63378 24.9484 9.16438 25.479 9.8129 25.479H17.8768C18.5253 25.479 19.0559 24.9484 19.0559 24.2999C19.0559 23.6514 18.5253 23.1208 17.8768 23.1208H15.0272V20.815H17.6606C18.3091 20.815 18.8397 20.2843 18.8397 19.6358C18.8397 18.9873 18.3091 18.4567 17.6606 18.4567H3.36049C2.81024 18.4567 2.35824 18.0113 2.35824 17.4545V3.88149C2.35824 3.33123 2.80368 2.87924 3.36049 2.87924H24.3226C24.8729 2.87924 25.3249 3.32468 25.3249 3.88149V8.85344H23.8575C22.2854 8.85344 21.008 10.1308 21.008 11.703V22.6295C21.008 24.2016 22.2854 25.479 23.8575 25.479H29.157C29.8055 25.479 30.3361 24.9484 30.3361 24.2999C30.3361 23.6514 29.8055 23.1208 29.157 23.1208H23.8575C23.5889 23.1208 23.3662 22.9046 23.3662 22.6295V11.703C23.3662 11.4344 23.5824 11.2117 23.8575 11.2117H29.157C29.4256 11.2117 29.6483 11.4279 29.6483 11.703V19.9503C29.6483 20.5988 30.1789 21.1294 30.8274 21.1294C31.4759 21.1294 32 20.5988 32 19.9503V11.703C32 10.1308 30.7226 8.85344 29.1505 8.85344Z"
     fill="black"
     id="path1"
     style="fill:#ffffff" />
</svg>
